<?xml version="1.0" encoding="UTF-8"?>
<svg id="Capa_1" xmlns="http://www.w3.org/2000/svg" version="1.1" viewBox="0 0 1676.98 451.16">
  <defs>
    <style>
      .st0 {
        fill: #ff8000;
      }

      .st1 {
        fill: #ff8400;
      }

      .st2 {
        fill: #95de00;
      }

      .st3 {
        fill: #ffffff;
      }

      path:not([class]) {
        fill: #ffffff;
      }
    </style>
  </defs>
  <g>
    <g>
      <path class="st0" d="M1160.07,451.16l32.67-32.67c-5.82-5.82-9.42-13.85-9.42-22.7,0-17.71,14.41-32.12,32.12-32.12s32.12,14.41,32.12,32.12c0,8.86-3.6,16.89-9.42,22.7l32.67,32.67c14.17-14.17,22.94-33.75,22.94-55.37,0-43.25-35.06-78.31-78.31-78.31s-78.31,35.06-78.31,78.31c0,21.62,8.76,41.2,22.94,55.37Z"/>
      <g>
        <g>
          <path d="M1310.33,393.89c0-13.27,10.24-22.7,24.58-22.7,9.26,0,16.55,4.02,19.75,11.23l-9.91,5.33c-2.38-4.18-5.9-6.06-9.92-6.06-6.47,0-11.55,4.51-11.55,12.21s5.08,12.21,11.55,12.21c4.01,0,7.54-1.8,9.92-6.06l9.91,5.41c-3.2,7.05-10.49,11.14-19.75,11.14-14.34,0-24.58-9.42-24.58-22.7Z"/>
          <path d="M1386.12,371.19v11.8c-1.07-.08-1.88-.16-2.87-.16-7.05,0-11.72,3.85-11.72,12.29v20.81h-12.78v-44.08h12.21v5.82c3.11-4.26,8.36-6.47,15.16-6.47Z"/>
          <path d="M1423.32,402.08l6.8,7.37c-4.1,4.67-10.24,7.13-18.19,7.13-15.24,0-25.16-9.59-25.16-22.7s10-22.7,23.6-22.7c12.46,0,22.7,8.19,22.78,22.29l-32.61,6.31c1.88,4.34,5.98,6.56,11.72,6.56,4.67,0,8.03-1.39,11.06-4.26ZM1399.31,392.58l21.47-4.18c-1.23-4.51-5.08-7.54-10.41-7.54-6.39,0-10.82,4.26-11.06,11.72Z"/>
          <path d="M1483.22,371.85v44.08h-12.21v-5.08c-3.2,3.85-7.87,5.74-13.77,5.74-12.46,0-22.04-8.85-22.04-22.7s9.59-22.7,22.04-22.7c5.41,0,10,1.72,13.19,5.33v-4.67h12.78ZM1470.68,393.89c0-7.62-4.92-12.21-11.23-12.21s-11.31,4.59-11.31,12.21,4.92,12.21,11.31,12.21,11.23-4.59,11.23-12.21Z"/>
          <path d="M1518.29,413.8c-2.62,1.88-6.47,2.79-10.32,2.79-10.49,0-16.47-5.33-16.47-15.81v-38.67h12.78v10.73h10.9v9.83h-10.9v17.95c0,3.77,1.97,5.82,5.41,5.82,1.88,0,3.77-.57,5.24-1.64l3.36,9.01Z"/>
          <path d="M1520.67,358.57c0-4.02,3.2-7.13,7.95-7.13s7.95,2.95,7.95,6.88c0,4.26-3.2,7.37-7.95,7.37s-7.95-3.11-7.95-7.13ZM1522.23,371.85h12.78v44.08h-12.78v-44.08Z"/>
          <path d="M1587.37,371.85l-18.6,44.08h-13.19l-18.52-44.08h13.19l12.21,29.99,12.62-29.99h12.29Z"/>
          <path class="st1" d="M1587.78,358.57c0-4.02,3.2-7.13,7.95-7.13s7.95,2.95,7.95,6.88c0,4.26-3.2,7.37-7.95,7.37s-7.95-3.11-7.95-7.13ZM1589.33,371.85h12.78v44.08h-12.78v-44.08Z"/>
          <path class="st1" d="M1655.46,371.85v44.08h-12.21v-5.08c-3.2,3.85-7.87,5.74-13.77,5.74-12.46,0-22.04-8.85-22.04-22.7s9.59-22.7,22.04-22.7c5.41,0,10,1.72,13.19,5.33v-4.67h12.78ZM1642.92,393.89c0-7.62-4.92-12.21-11.23-12.21s-11.31,4.59-11.31,12.21,4.92,12.21,11.31,12.21,11.23-4.59,11.23-12.21Z"/>
        </g>
        <g>
          <path d="M1326.29,363.01h-5.07l-.93,2.58h-1.6l4.2-11.56h1.75l4.19,11.56h-1.6l-.93-2.58ZM1325.86,361.78l-2.1-5.87-2.1,5.87h4.2Z"/>
          <path d="M1336.51,356.82c.59.34,1.04.78,1.33,1.3v-1.67h1.53v9.34c0,.83-.18,1.58-.53,2.23s-.86,1.16-1.53,1.53c-.66.37-1.43.55-2.31.55-1.2,0-2.2-.28-3-.85-.8-.57-1.27-1.34-1.42-2.32h1.5c.17.56.51,1,1.03,1.34.52.34,1.15.51,1.88.51.83,0,1.51-.26,2.04-.78.53-.52.79-1.26.79-2.2v-1.92c-.3.53-.75.98-1.33,1.33-.59.36-1.28.53-2.07.53s-1.55-.2-2.21-.6c-.66-.4-1.18-.96-1.56-1.68s-.57-1.54-.57-2.47.19-1.75.57-2.46c.38-.71.9-1.25,1.56-1.64.66-.39,1.4-.58,2.21-.58s1.48.17,2.08.52ZM1337.42,359.21c-.28-.51-.65-.9-1.13-1.18s-.99-.41-1.56-.41-1.08.13-1.55.4c-.47.27-.84.66-1.12,1.17-.28.51-.42,1.11-.42,1.8s.14,1.31.42,1.83c.28.52.65.91,1.12,1.18s.98.41,1.55.41,1.09-.14,1.56-.41.85-.67,1.13-1.18c.28-.52.42-1.12.42-1.81s-.14-1.29-.42-1.8Z"/>
          <path d="M1350.22,361.59h-7.3c.06.9.36,1.6.93,2.11s1.24.76,2.04.76c.66,0,1.2-.15,1.64-.46.44-.31.75-.71.93-1.23h1.63c-.25.88-.73,1.59-1.47,2.14-.73.55-1.65.83-2.73.83-.87,0-1.64-.19-2.33-.58-.68-.39-1.22-.94-1.61-1.66-.39-.72-.58-1.55-.58-2.49s.19-1.77.57-2.48c.38-.71.91-1.26,1.59-1.64.68-.38,1.47-.58,2.36-.58s1.63.19,2.3.57,1.18.9,1.54,1.56.54,1.41.54,2.24c0,.29-.02.59-.05.92ZM1348.32,358.87c-.26-.42-.6-.73-1.04-.95-.44-.22-.93-.32-1.46-.32-.77,0-1.42.24-1.96.73s-.85,1.17-.93,2.03h5.77c0-.58-.13-1.08-.38-1.49Z"/>
          <path d="M1359.43,357.3c.69.67,1.03,1.64,1.03,2.91v5.39h-1.5v-5.17c0-.91-.23-1.61-.68-2.09-.46-.48-1.08-.72-1.87-.72s-1.44.25-1.91.75c-.47.5-.71,1.23-.71,2.18v5.05h-1.52v-9.14h1.52v1.3c.3-.47.71-.83,1.23-1.08.52-.25,1.09-.38,1.71-.38,1.11,0,2.01.34,2.7,1.01Z"/>
          <path d="M1362.95,358.53c.38-.71.9-1.25,1.58-1.64.67-.39,1.44-.58,2.31-.58,1.12,0,2.05.27,2.78.82.73.54,1.21,1.3,1.44,2.27h-1.63c-.16-.56-.46-1-.91-1.32s-1.01-.48-1.68-.48c-.87,0-1.57.3-2.1.89s-.8,1.44-.8,2.53.27,1.95.8,2.55c.53.6,1.23.9,2.1.9.67,0,1.22-.16,1.67-.47s.75-.76.92-1.33h1.63c-.25.93-.73,1.68-1.47,2.24-.73.56-1.65.84-2.75.84-.87,0-1.64-.19-2.31-.58-.67-.39-1.2-.94-1.58-1.65-.38-.71-.57-1.54-.57-2.5s.19-1.77.57-2.48Z"/>
          <path d="M1373.12,354.67c-.2-.2-.3-.44-.3-.73s.1-.53.3-.73c.2-.2.44-.3.73-.3s.51.1.71.3c.19.2.29.44.29.73s-.1.53-.29.73-.43.3-.71.3-.53-.1-.73-.3ZM1374.59,356.46v9.14h-1.52v-9.14h1.52Z"/>
          <path d="M1377.17,358.53c.38-.71.9-1.25,1.56-1.64.66-.39,1.4-.58,2.21-.58s1.5.17,2.08.52c.59.34,1.03.78,1.32,1.3v-1.67h1.53v9.14h-1.53v-1.7c-.3.53-.75.98-1.34,1.33-.59.35-1.29.53-2.08.53s-1.55-.2-2.2-.6c-.66-.4-1.17-.96-1.55-1.68s-.57-1.54-.57-2.47.19-1.75.57-2.46ZM1383.93,359.21c-.28-.51-.65-.9-1.13-1.18s-.99-.41-1.56-.41-1.08.13-1.55.4c-.47.27-.84.66-1.12,1.17-.28.51-.42,1.11-.42,1.8s.14,1.31.42,1.83c.28.52.65.91,1.12,1.18s.98.41,1.55.41,1.09-.14,1.56-.41.85-.67,1.13-1.18c.28-.52.42-1.12.42-1.81s-.14-1.29-.42-1.8Z"/>
        </g>
      </g>
    </g>
    <g>
      <path d="M1068.42,378.03c1.52-.87,3.24-1.31,5.18-1.31,2.08,0,3.94.49,5.6,1.47,1.66.98,2.96,2.37,3.92,4.15.95,1.78,1.43,3.85,1.43,6.21s-.48,4.41-1.43,6.23c-.96,1.83-2.27,3.24-3.94,4.25s-3.53,1.52-5.58,1.52-3.74-.43-5.24-1.31c-1.5-.87-2.63-1.98-3.39-3.33v4.25h-3.83v-31.16h3.83v12.38c.79-1.38,1.94-2.5,3.45-3.37ZM1079.58,384.01c-.7-1.29-1.65-2.27-2.84-2.95s-2.5-1.01-3.94-1.01-2.7.34-3.9,1.03c-1.19.69-2.15,1.68-2.86,2.99-.72,1.31-1.07,2.82-1.07,4.53s.36,3.26,1.07,4.57c.72,1.31,1.67,2.3,2.86,2.99,1.19.69,2.49,1.03,3.9,1.03s2.74-.34,3.94-1.03c1.19-.69,2.14-1.68,2.84-2.99.7-1.3,1.05-2.84,1.05-4.61s-.35-3.26-1.05-4.55Z"/>
      <path d="M1109.48,377.1l-13.9,33.94h-3.96l4.55-11.12-9.31-22.82h4.25l7.24,18.7,7.16-18.7h3.96Z"/>
    </g>
  </g>
  <g>
    <path class="st2" d="M1220.99,68.06c-14.67,11.86-28.13,26.27-40.39,43.25-12.26,16.98-22.6,34.91-31.04,53.8-8.44,18.89-14.67,37.83-18.69,56.81-4.02,18.99-5.23,36.32-3.62,51.99.2,1.61.7,4.22,1.51,7.84.8,3.62,1.86,7.34,3.17,11.15,1.3,3.81,2.91,7.08,4.82,9.79,1.91,2.71,4.07,3.96,6.48,3.77,1.21-.2,2.61-.75,4.22-1.66,1.61-.9,3.16-1.96,4.67-3.16,1.51-1.21,2.91-2.46,4.22-3.77,1.3-1.31,2.36-2.46,3.17-3.47,20.49-23.51,34.96-49.63,43.4-78.36.8-3.01,1.91-6.38,3.31-10.1,1.4-3.72,3.17-7.23,5.27-10.55,2.11-3.32,4.57-6.13,7.38-8.44,2.81-2.31,6.23-3.66,10.25-4.07,4.42-.4,8.18.3,11.3,2.11,3.11,1.81,4.87,4.72,5.27,8.74.6,5.83-.45,13.21-3.16,22.15-2.71,8.94-6.53,18.44-11.45,28.48-4.93,10.05-10.75,20.19-17.48,30.44-6.73,10.25-13.86,19.59-21.4,28.03-7.53,8.44-15.27,15.42-23.21,20.95-7.94,5.52-15.52,8.69-22.75,9.49-8.04.8-15.02-.45-20.95-3.77-5.93-3.31-10.9-7.74-14.92-13.26-4.02-5.53-7.13-11.66-9.34-18.38-2.21-6.73-3.62-13.11-4.22-19.14-.4-3.21-.65-6.48-.75-9.79-.1-3.32.05-6.68.45-10.1,2.41-39.38,10.9-75.9,25.47-109.56,14.57-33.65,35.41-66.05,62.54-97.2,3.41-4.02,7.43-8.14,12.05-12.36,4.62-4.22,9.54-8.14,14.77-11.75,5.22-3.62,10.75-6.73,16.58-9.34,5.83-2.61,11.65-4.22,17.48-4.82,6.83-.6,13.11-.1,18.84,1.51,5.73,1.61,10.75,4.12,15.07,7.54,4.32,3.42,7.84,7.64,10.55,12.66,2.71,5.02,4.37,10.55,4.97,16.58.6,5.83-.15,13.46-2.26,22.91-2.11,9.45-5.27,18.79-9.49,28.03-4.22,9.24-9.4,17.38-15.52,24.41-6.13,7.04-12.91,10.95-20.34,11.75-3.82.4-7.23-.25-10.25-1.96-3.01-1.7-4.72-4.37-5.12-7.99-.2-2.01.55-5.52,2.26-10.55,1.71-5.02,3.57-10.7,5.58-17.03,2.01-6.33,3.81-12.81,5.42-19.44,1.61-6.63,2.11-12.56,1.51-17.78-.41-4.82-1.46-7.73-3.16-8.74-1.71-1-3.77-.95-6.18.15-2.41,1.11-5.08,2.92-7.99,5.42-2.92,2.51-5.68,4.78-8.29,6.78Z"/>
    <path class="st2" d="M1324.07,208.22h20.62c2.81,0,6.52-.04,11.13-.12,4.61-.08,9.14.27,13.59,1.05,4.45.78,8.28,2.19,11.48,4.22,3.2,2.03,4.8,5.16,4.8,9.37,0,2.81-.78,5.2-2.34,7.15-1.56,1.96-3.51,3.48-5.86,4.57-2.34,1.09-4.84,1.88-7.5,2.34-2.66.47-5.08.7-7.26.7-9.69,0-19.37-.27-29.06-.82-9.69-.55-19.45-.97-29.29-1.29-1.72,10.62-3.36,21.44-4.92,32.45-1.56,11.01-2.34,21.91-2.34,32.69,0,1.88.35,3.32,1.05,4.33.7,1.01,1.44,1.88,2.23,2.58.78.7,1.52,1.44,2.23,2.23.7.78,1.05,1.95,1.05,3.52,0,2.81-1.09,5-3.28,6.56-2.19,1.56-4.61,2.34-7.26,2.34-3.75,0-6.64-1.25-8.67-3.75-2.03-2.5-3.59-5.55-4.69-9.14-1.09-3.59-1.76-7.3-1.99-11.13-.23-3.83-.35-7.07-.35-9.72,0-9.22.66-18.39,1.99-27.53,1.33-9.14,1.99-18.24,1.99-27.3,0-2.66-.59-5.04-1.76-7.15-1.17-2.11-1.76-4.25-1.76-6.44,0-.31.43-1.6,1.29-3.87.86-2.26,1.83-4.84,2.93-7.73,1.09-2.89,2.19-5.86,3.28-8.9,1.09-3.05,1.79-5.51,2.11-7.38.62-4.06,1.64-9.17,3.05-15.35,1.41-6.17,2.81-12.5,4.22-18.98,1.41-6.48,2.65-12.69,3.75-18.63,1.09-5.93,1.64-10.7,1.64-14.29l-.23-2.34c-1.88,1.72-4.38,4.42-7.5,8.08-3.13,3.67-6.33,7.38-9.61,11.13s-6.52,7.03-9.72,9.84c-3.2,2.81-5.9,4.22-8.08,4.22-2.81,0-5.31-1.01-7.5-3.05-2.19-2.03-3.28-4.45-3.28-7.26,0-4.69,1.56-9.72,4.69-15.11,3.12-5.39,7.11-10.93,11.95-16.64,4.84-5.7,10.19-11.56,16.05-17.57,5.86-6.01,11.56-11.99,17.11-17.93,5.54-5.93,10.54-11.79,15-17.57,4.45-5.78,7.69-11.25,9.72-16.4.62-1.56,1.37-2.97,2.23-4.22.86-1.25,1.83-2.5,2.93-3.75,1.25-1.41,2.65-2.66,4.22-3.75,1.56-1.09,3.28-1.64,5.16-1.64,2.97,0,5.31,1.05,7.03,3.16,1.72,2.11,3.2,4.26,4.45,6.44,4.53-2.03,9.25-4.25,14.18-6.68,4.92-2.42,9.88-4.65,14.88-6.68,5-2.03,10.08-3.71,15.23-5.04,5.16-1.33,10.31-1.99,15.47-1.99,3.28,0,6.33.63,9.14,1.88,2.81,1.25,5.27,2.93,7.38,5.04,2.11,2.11,3.75,4.57,4.92,7.38s1.76,5.86,1.76,9.14c0,6.56-2.19,14.49-6.56,23.78-4.38,9.3-10.04,19.21-16.99,29.76-6.95,10.54-14.73,21.32-23.32,32.34-8.59,11.01-17.11,21.44-25.54,31.28-8.44,9.84-16.37,18.75-23.78,26.71-7.42,7.97-13.4,14.22-17.93,18.75l.47,2.11ZM1368.83,67.63c-4.06,2.34-8.05,4.77-11.95,7.26-3.91,2.5-7.66,4.92-11.25,7.26-2.19,1.56-3.79,3.05-4.8,4.45-1.02,1.41-1.92,3.44-2.7,6.09-.47,1.56-1.21,4.18-2.23,7.85-1.02,3.67-2.15,7.85-3.4,12.54-1.25,4.69-2.58,9.65-3.98,14.88-1.41,5.24-2.66,10.12-3.75,14.64-1.09,4.53-1.99,8.48-2.69,11.83-.7,3.36-1.05,5.51-1.05,6.44,9.53-10.31,18.75-20.85,27.65-31.63,8.9-10.78,17.42-21.95,25.54-33.51,2.97-4.22,5.94-8.47,8.9-12.77,2.97-4.29,5.51-8.2,7.62-11.72,2.11-3.52,3.52-6.52,4.22-9.02.7-2.5.39-4.1-.94-4.8-1.33-.7-4.02-.27-8.08,1.29-4.06,1.56-9.76,4.53-17.11,8.9Z"/>
    <path class="st2" d="M1504.12,186.07c16.54-24.45,33.35-48.22,50.43-71.33,17.08-23.1,35.23-45.88,54.47-68.36,5.39-6.29,10.61-12.99,15.64-20.09,5.03-7.1,10.42-13.53,16.18-19.28,4.67-4.67,10.07-7.01,16.18-7.01,2.52,0,4.99.5,7.42,1.48,2.43.99,4.58,2.29,6.47,3.91s3.37,3.55,4.45,5.8c1.08,2.25,1.62,4.72,1.62,7.42,0,2.52-1.31,6.79-3.91,12.81-2.61,6.03-5.58,12.45-8.9,19.28-3.33,6.83-6.65,13.44-9.98,19.82-3.33,6.38-5.71,11.19-7.15,14.43-5.22,12.23-10.52,25.85-15.91,40.85-5.39,15.01-10.29,30.47-14.7,46.38-4.41,15.91-8,31.73-10.79,47.46-2.79,15.73-4.18,30.25-4.18,43.55,0,2.16.4,4.05,1.21,5.66.81,1.62,1.71,3.1,2.7,4.45.99,1.35,1.89,2.79,2.7,4.31.81,1.53,1.21,3.19,1.21,4.99,0,2.16-.5,4.22-1.48,6.2-.99,1.98-2.29,3.68-3.91,5.12-1.62,1.44-3.42,2.6-5.39,3.51-1.98.9-4.05,1.35-6.2,1.35-6.83,0-12.23-2.52-16.18-7.55-3.96-5.04-6.92-11.06-8.9-18.07-1.98-7.01-3.24-14.25-3.78-21.71-.54-7.46-.81-13.71-.81-18.74,0-16.18,1.71-31.86,5.12-47.06,3.41-15.19,7.19-30.61,11.33-46.25-2.88,3.24-6.34,7.69-10.38,13.35-4.04,5.66-8.41,11.87-13.08,18.61-4.68,6.74-9.53,13.58-14.56,20.49-5.04,6.92-10.07,13.21-15.1,18.88-5.04,5.66-9.89,10.29-14.56,13.89-4.68,3.6-8.99,5.39-12.94,5.39-5.39,0-9.94-2.07-13.62-6.2-3.69-4.13-6.7-9.48-9.03-16.04-2.34-6.56-4.14-13.89-5.39-21.98-1.26-8.09-2.25-16.04-2.97-23.87-.72-7.82-1.21-15.05-1.48-21.71-.27-6.65-.5-11.87-.67-15.64l-2.44,2.16c-1.99,5.04-4.7,12-8.13,20.9-3.43,8.9-7.09,18.7-10.98,29.39-3.88,10.7-7.82,21.89-11.79,33.57-3.98,11.69-7.59,22.79-10.84,33.3-3.25,10.52-5.87,20.09-7.86,28.72-1.99,8.63-2.98,15.28-2.98,19.96,0,1.44.31,2.65.94,3.64.63.99,1.35,1.89,2.16,2.7.81.81,1.53,1.66,2.16,2.56.63.9.94,1.98.94,3.24,0,1.62-.81,3.41-2.43,5.39-1.62,1.98-3.5,3.78-5.64,5.39s-4.42,2.97-6.82,4.04c-2.4,1.08-4.41,1.62-6.01,1.62-3.21,0-5.84-.81-7.89-2.43-2.04-1.62-3.65-3.64-4.81-6.07-1.15-2.43-1.91-5.08-2.27-7.96-.35-2.88-.54-5.58-.54-8.09,0-6.47.9-14.74,2.7-24.81,1.8-10.07,4.23-21.21,7.28-33.44,3.06-12.22,6.65-25.21,10.79-38.97,4.13-13.75,8.54-27.59,13.21-41.53,4.67-13.93,9.48-27.64,14.43-41.12,4.94-13.48,9.75-25.98,14.43-37.48,4.67-11.5,9.17-21.75,13.48-30.74,4.31-8.99,8.09-16,11.33-21.03,1.79-2.7,4.04-4.94,6.74-6.74,2.7-1.79,5.75-2.7,9.17-2.7,6.29,0,11.01,2.16,14.16,6.47,3.14,4.31,4.72,9.35,4.72,15.1,0,19.06-.5,38.12-1.48,57.17-.99,19.06-1.48,38.12-1.48,57.17,0,5.22.27,10.47.81,15.78.54,5.3.99,10.56,1.35,15.78l2.43.54Z"/>
  </g>
  <g>
    <g>
      <path class="st2" d="M197.41,101.85v13.72h-31.05l-95.69,113.43c-17.75,21.3-49.44,24.12-70.67,6.31l101.34-119.74H33.78c-16.24.55-29.74-14.37-29.74-29.62v-16.09h97.99l28.11,32.6-6.8-12.67,16.8-19.96h25.14c17.75,0,32.13,14.28,32.13,32.03Z"/>
      <g>
        <g>
          <path class="st3" d="M303.08,115.7h-30.71v-30.52c0-8.44-6.84-15.29-15.29-15.29h-25.75v45.81h-21.69v32.01h21.69v51.07c0,27.48,23.25,48.84,50.73,48.84,8.73,0,17.46-1.97,20.69-4.2v-32.01h-15.49c-8.76,0-14.89-6.8-14.89-17.46v-44.64l-5.8-1.6h36.51v-32.01Z"/>
          <path class="st3" d="M809.56,115.7h-30.71v-30.52c0-8.44-6.84-15.29-15.29-15.29h-25.75v45.81h-21.69v32.01h21.69v51.07c0,27.48,23.25,48.84,50.73,48.84,8.73,0,17.46-1.97,20.69-4.2v-32.01h-15.49c-8.76,0-14.89-6.8-14.89-17.46v-44.64l-5.8-1.6h36.51v-32.01Z"/>
          <path class="st3" d="M398.81,115.7v74.35c0,12.29-8.39,21.02-19.72,21.02s-19.39-8.73-19.39-21.02v-74.35h-41.37v79.85c0,31.68,21.65,52.07,60.76,52.07s60.8-20.39,60.8-52.07v-79.85h-41.07Z"/>
          <path class="st3" d="M534.33,113.1c-14.16,0-26.05,6.73-34.41,17.86l-.17.23-5.45,7.95,3.82-8.46v-14.98h-41.37v129.32h41.37v-61.76c0-21.32,14.56-33.61,34.91-33.61,4.86,0,9.06.63,11.96,1.3v-36.54c-2.9-.97-6.76-1.3-10.66-1.3Z"/>
          <path class="st3" d="M559.46,115.7v129.32h41.04V115.7h-41.04ZM580.15,52.76c-12.29,0-22.65,10.03-22.65,22.62s10.36,22.65,22.65,22.65,22.62-10.36,22.62-22.65-10.36-22.62-22.62-22.62Z"/>
          <path class="st3" d="M669.19,162.27c-9.36-3.9-13.89-5.83-13.89-10.69,0-4.2,3.23-7.43,10.33-7.43,8.43,0,16.19,4.53,20.05,9.36l20.69-23.25c-9.69-9.69-25.55-17.16-43.64-17.16-29.42,0-48.17,19.42-48.17,41.41,0,25.85,25.85,34.58,40.74,40.08,11.63,4.53,15.52,7.76,15.52,12.29,0,5.16-4.53,8.06-11.33,8.06s-15.86-2.57-21.65-13.56l-30.41,15.19c7.76,20.05,31.68,31.05,54.63,31.05,29.12,0,46.9-17.79,46.9-42.04,0-25.85-21.35-36.21-39.78-43.31Z"/>
          <path class="st3" d="M1121.11,211.4c-5.5,0-11.33-1.97-11.33-12.63v-83.08h-41.04v8.15l3.03,6.74-3.03-3.56-.1-.07c-9.69-8.69-21.92-13.86-36.78-13.86-35.88,0-63.99,29.75-63.99,67.26s28.12,67.26,63.99,67.26c18.22,0,32.33-7.09,42.66-19.95l-1.65-7.77,3.26,5.76.03-.03c8.06,13.26,22.29,21.99,39.78,21.99,4.2,0,8.06-1.3,10.99-2.6v-33.61h-5.83ZM1039.96,211.07c-17.16,0-30.71-13.59-30.71-30.71s13.56-30.71,30.71-30.71,30.71,13.59,30.71,30.71-13.89,30.71-30.71,30.71Z"/>
        </g>
        <path class="st3" d="M887.41,112.76c-41.72,0-71.16,27.17-71.16,67.57s29.13,67.29,72.42,67.29c28.18,0,48.99-11.74,59.76-30.42,0,0-32.87-16.75-32.94-16.62-1.13,1.86-10.67,17.07-27.43,16.31-18.1-.79-27.8-10.61-29.88-27.87l-7.08-1.89h101.57c2.29,0,4.14-1.84,4.21-4.13,1.4-42.09-26.73-70.24-69.47-70.24ZM860.58,162.22c4.16-10.99,12.91-17.79,27.49-17.79s21.95,6.49,26.17,17.79h-53.65Z"/>
      </g>
    </g>
    <g>
      <path class="st3" d="M274.5,273.61v31.84h-3.23v-25.42l-11.35,25.42h-2.35l-11.35-25.33v25.33h-3.23v-31.84h3.41l12.32,27.59,12.32-27.59h3.46Z"/>
      <path class="st3" d="M317.13,297.79h-14.67l-2.81,7.66h-3.41l11.77-31.84h3.64l11.72,31.84h-3.41l-2.81-7.66ZM316.16,295.11l-6.37-17.44-6.37,17.44h12.73Z"/>
      <path class="st3" d="M366.45,273.2l-10.33,19.7v12.55h-3.23v-12.55l-10.43-19.7h3.65l8.4,16.75,8.35-16.75h3.6Z"/>
      <path class="st3" d="M394.14,303.67c-2.43-1.4-4.35-3.35-5.74-5.86-1.4-2.51-2.1-5.34-2.1-8.51s.7-6.01,2.1-8.51c1.4-2.51,3.31-4.46,5.74-5.86,2.43-1.4,5.14-2.1,8.12-2.1s5.74.7,8.17,2.1c2.43,1.4,4.34,3.35,5.72,5.86s2.08,5.34,2.08,8.51-.69,6.01-2.08,8.51-3.29,4.46-5.72,5.86c-2.43,1.4-5.15,2.1-8.17,2.1s-5.69-.7-8.12-2.1ZM408.72,301.29c1.91-1.11,3.41-2.7,4.52-4.78,1.11-2.08,1.66-4.48,1.66-7.22s-.55-5.14-1.66-7.2c-1.11-2.06-2.61-3.64-4.52-4.75s-4.06-1.66-6.46-1.66-4.55.55-6.46,1.66c-1.91,1.11-3.41,2.69-4.52,4.75-1.11,2.06-1.66,4.46-1.66,7.2s.55,5.14,1.66,7.22,2.61,3.67,4.52,4.78c1.91,1.11,4.06,1.66,6.46,1.66s4.55-.55,6.46-1.66Z"/>
      <path class="st3" d="M457.9,305.45l-7.98-13.47h-5.95v13.47h-3.23v-32.25h9.69c3.6,0,6.33.86,8.19,2.58,1.86,1.72,2.79,3.98,2.79,6.78,0,2.34-.67,4.33-2.01,5.97-1.34,1.65-3.31,2.71-5.93,3.21l8.3,13.7h-3.88ZM443.97,289.34h6.51c2.52,0,4.42-.62,5.7-1.85,1.28-1.23,1.92-2.88,1.92-4.94s-.62-3.76-1.85-4.91c-1.23-1.15-3.17-1.73-5.81-1.73h-6.46v13.43Z"/>
      <path class="st3" d="M487.66,273.2v32.25h-3.23v-32.25h3.23Z"/>
      <path class="st3" d="M515.78,304.66c-1.61-.74-2.88-1.77-3.81-3.09-.92-1.32-1.42-2.8-1.48-4.43h3.41c.15,1.57.85,2.95,2.08,4.13,1.23,1.18,3.03,1.78,5.4,1.78,2.18,0,3.91-.56,5.19-1.68s1.92-2.54,1.92-4.27c0-1.38-.35-2.5-1.06-3.34-.71-.85-1.58-1.48-2.63-1.89-1.05-.42-2.49-.87-4.34-1.36-2.15-.58-3.86-1.15-5.12-1.71s-2.34-1.41-3.23-2.58c-.89-1.17-1.34-2.75-1.34-4.75,0-1.66.43-3.14,1.29-4.45.86-1.31,2.08-2.33,3.65-3.07,1.57-.74,3.37-1.11,5.4-1.11,2.98,0,5.39.73,7.22,2.19,1.83,1.46,2.88,3.34,3.16,5.65h-3.51c-.22-1.32-.94-2.5-2.17-3.53-1.23-1.03-2.89-1.55-4.98-1.55-1.94,0-3.55.52-4.84,1.55-1.29,1.03-1.94,2.44-1.94,4.22,0,1.35.35,2.45,1.06,3.28.71.83,1.59,1.46,2.65,1.89,1.06.43,2.5.89,4.31,1.38,2.09.58,3.78,1.16,5.08,1.73,1.29.57,2.38,1.44,3.28,2.61.89,1.17,1.34,2.74,1.34,4.71,0,1.51-.4,2.94-1.2,4.29-.8,1.35-1.98,2.45-3.55,3.28-1.57.83-3.45,1.25-5.63,1.25s-3.99-.37-5.61-1.11Z"/>
      <path class="st3" d="M573.48,273.2v2.68h-8.95v29.58h-3.23v-29.58h-9v-2.68h21.18Z"/>
      <path class="st3" d="M613.89,297.79h-14.67l-2.81,7.66h-3.41l11.77-31.84h3.64l11.72,31.84h-3.41l-2.81-7.66ZM612.93,295.11l-6.37-17.44-6.37,17.44h12.73Z"/>
      <path class="st3" d="M689.88,275.13c2.55,1.29,4.51,3.15,5.86,5.58s2.03,5.32,2.03,8.67-.68,6.19-2.03,8.61-3.31,4.26-5.86,5.54c-2.55,1.28-5.61,1.92-9.18,1.92h-9.55v-32.25h9.55c3.57,0,6.63.65,9.18,1.94ZM690.97,299.24c2.35-2.35,3.53-5.64,3.53-9.85s-1.18-7.56-3.53-9.94-5.78-3.58-10.27-3.58h-6.32v26.9h6.32c4.49,0,7.91-1.18,10.27-3.53Z"/>
      <path class="st3" d="M723.57,275.83v12.04h12.23v2.68h-12.23v12.23h13.61v2.68h-16.84v-32.3h16.84v2.68h-13.61Z"/>
      <path class="st3" d="M808.28,273.2v2.68h-8.95v29.58h-3.23v-29.58h-9v-2.68h21.18Z"/>
      <path class="st3" d="M833.1,273.2v20.3c0,3.2.76,5.57,2.28,7.11s3.61,2.31,6.25,2.31,4.71-.76,6.21-2.28c1.49-1.52,2.24-3.9,2.24-7.13v-20.3h3.23v20.25c0,4.09-1.08,7.17-3.25,9.23-2.17,2.06-4.99,3.09-8.47,3.09s-6.3-1.03-8.47-3.09c-2.17-2.06-3.25-5.14-3.25-9.23v-20.25h3.23Z"/>
      <path class="st3" d="M894.28,305.45l-7.98-13.47h-5.95v13.47h-3.23v-32.25h9.69c3.6,0,6.33.86,8.19,2.58,1.86,1.72,2.79,3.98,2.79,6.78,0,2.34-.67,4.33-2.01,5.97-1.34,1.65-3.31,2.71-5.93,3.21l8.3,13.7h-3.88ZM880.35,289.34h6.51c2.52,0,4.42-.62,5.7-1.85,1.28-1.23,1.91-2.88,1.91-4.94s-.62-3.76-1.84-4.91c-1.23-1.15-3.17-1.73-5.81-1.73h-6.46v13.43Z"/>
      <path class="st3" d="M924.04,273.2v32.25h-3.23v-32.25h3.23Z"/>
      <path class="st3" d="M952.16,304.66c-1.62-.74-2.88-1.77-3.81-3.09-.92-1.32-1.42-2.8-1.48-4.43h3.41c.15,1.57.85,2.95,2.08,4.13,1.23,1.18,3.03,1.78,5.4,1.78,2.18,0,3.91-.56,5.19-1.68s1.92-2.54,1.92-4.27c0-1.38-.35-2.5-1.06-3.34-.71-.85-1.58-1.48-2.63-1.89s-2.49-.87-4.34-1.36c-2.15-.58-3.86-1.15-5.12-1.71-1.26-.55-2.34-1.41-3.23-2.58-.89-1.17-1.34-2.75-1.34-4.75,0-1.66.43-3.14,1.29-4.45.86-1.31,2.08-2.33,3.65-3.07,1.57-.74,3.37-1.11,5.4-1.11,2.98,0,5.39.73,7.22,2.19,1.83,1.46,2.88,3.34,3.16,5.65h-3.51c-.21-1.32-.94-2.5-2.17-3.53-1.23-1.03-2.89-1.55-4.98-1.55-1.94,0-3.55.52-4.84,1.55-1.29,1.03-1.94,2.44-1.94,4.22,0,1.35.35,2.45,1.06,3.28.71.83,1.59,1.46,2.65,1.89s2.5.89,4.31,1.38c2.09.58,3.78,1.16,5.08,1.73,1.29.57,2.38,1.44,3.28,2.61.89,1.17,1.34,2.74,1.34,4.71,0,1.51-.4,2.94-1.2,4.29s-1.98,2.45-3.55,3.28c-1.57.83-3.45,1.25-5.63,1.25s-3.99-.37-5.61-1.11Z"/>
      <path class="st3" d="M1022.5,273.61v31.84h-3.23v-25.42l-11.35,25.42h-2.35l-11.35-25.33v25.33h-3.23v-31.84h3.41l12.32,27.59,12.32-27.59h3.46Z"/>
      <path class="st3" d="M1052.81,303.67c-2.43-1.4-4.35-3.35-5.74-5.86-1.4-2.51-2.1-5.34-2.1-8.51s.7-6.01,2.1-8.51c1.4-2.51,3.31-4.46,5.74-5.86,2.43-1.4,5.14-2.1,8.12-2.1s5.74.7,8.17,2.1c2.43,1.4,4.34,3.35,5.72,5.86,1.38,2.51,2.08,5.34,2.08,8.51s-.69,6.01-2.08,8.51c-1.38,2.51-3.29,4.46-5.72,5.86-2.43,1.4-5.15,2.1-8.17,2.1s-5.69-.7-8.12-2.1ZM1067.39,301.29c1.91-1.11,3.41-2.7,4.52-4.78s1.66-4.48,1.66-7.22-.55-5.14-1.66-7.2c-1.11-2.06-2.62-3.64-4.52-4.75-1.91-1.11-4.06-1.66-6.46-1.66s-4.55.55-6.46,1.66c-1.91,1.11-3.42,2.69-4.52,4.75-1.11,2.06-1.66,4.46-1.66,7.2s.55,5.14,1.66,7.22c1.11,2.08,2.61,3.67,4.52,4.78,1.91,1.11,4.06,1.66,6.46,1.66s4.55-.55,6.46-1.66Z"/>
    </g>
  </g>
</svg>
