<svg xmlns="http://www.w3.org/2000/svg" style="display:none">
<symbol id="icon-pipeline" viewBox="0 0 24 24"><rect x="3" y="4" width="5" height="16" rx="1.5"/><rect x="10" y="4" width="5" height="16" rx="1.5"/><rect x="17" y="4" width="4" height="16" rx="1.5"/></symbol>
<symbol id="icon-user360" viewBox="0 0 24 24"><circle cx="12" cy="8" r="4"/><path d="M4 21c1.5-4 14.5-4 16 0"/><path d="M20 7a8 8 0 0 1 0 10"/><path d="M4 7a8 8 0 0 0 0 10"/></symbol>
<symbol id="icon-calendar" viewBox="0 0 24 24"><rect x="3" y="5" width="18" height="16" rx="2"/><path d="M16 3v4M8 3v4M3 10h18"/><path d="M8 14h3v3H8z"/></symbol>
<symbol id="icon-graduation" viewBox="0 0 24 24"><path d="M2 8l10-5 10 5-10 5-10-5z"/><path d="M6 10v5c2 3 10 3 12 0v-5"/><path d="M22 8v7"/></symbol>
<symbol id="icon-money" viewBox="0 0 24 24"><circle cx="12" cy="12" r="9"/><path d="M12 6v12M15 9.5c-.8-1-4.2-1.2-4.8.5-.7 2.4 5.6 1.6 5 4.4-.4 1.8-4 1.8-5.7.4"/></symbol>
<symbol id="icon-rfm" viewBox="0 0 24 24"><circle cx="8" cy="8" r="3"/><circle cx="16" cy="8" r="3"/><circle cx="12" cy="16" r="3"/><path d="M6 19c-1.4 0-2.5 1-2.5 2M18 19c1.4 0 2.5 1 2.5 2M9.5 20.5h5"/></symbol>
<symbol id="icon-chart" viewBox="0 0 24 24"><path d="M4 20V4"/><path d="M4 20h16"/><rect x="7" y="12" width="3" height="5" rx="1"/><rect x="12" y="8" width="3" height="9" rx="1"/><rect x="17" y="5" width="3" height="12" rx="1"/></symbol>
<symbol id="icon-shield" viewBox="0 0 24 24"><path d="M12 3l8 3v6c0 5-3.5 8-8 9-4.5-1-8-4-8-9V6l8-3z"/><path d="M9 12l2 2 4-5"/></symbol>
<symbol id="icon-plane" viewBox="0 0 24 24"><path d="M22 2L11 13"/><path d="M22 2l-7 20-4-9-9-4 20-7z"/></symbol>
<symbol id="icon-ai" viewBox="0 0 24 24"><path d="M12 3v3M12 18v3M3 12h3M18 12h3"/><rect x="7" y="7" width="10" height="10" rx="2"/><path d="M10 14V10l2 4 2-4v4"/></symbol>
</svg>
