<svg xmlns="http://www.w3.org/2000/svg" style="display:none">
  <symbol id="icon-plane" viewBox="0 0 24 24"><path d="M22 2 11 13"/><path d="m22 2-7 20-4-9-9-4Z"/></symbol>
  <symbol id="icon-kanban" viewBox="0 0 24 24"><rect x="3" y="3" width="7" height="18" rx="2"/><rect x="14" y="3" width="7" height="10" rx="2"/></symbol>
  <symbol id="icon-user" viewBox="0 0 24 24"><path d="M20 21a8 8 0 0 0-16 0"/><circle cx="12" cy="7" r="4"/></symbol>
  <symbol id="icon-calendar" viewBox="0 0 24 24"><path d="M8 2v4M16 2v4"/><rect x="3" y="4" width="18" height="18" rx="2"/><path d="M3 10h18"/></symbol>
  <symbol id="icon-globe" viewBox="0 0 24 24"><circle cx="12" cy="12" r="10"/><path d="M2 12h20M12 2a15.3 15.3 0 0 1 0 20M12 2a15.3 15.3 0 0 0 0 20"/></symbol>
  <symbol id="icon-percent" viewBox="0 0 24 24"><line x1="19" y1="5" x2="5" y2="19"/><circle cx="6.5" cy="6.5" r="2.5"/><circle cx="17.5" cy="17.5" r="2.5"/></symbol>
  <symbol id="icon-pie" viewBox="0 0 24 24"><path d="M21.21 15.89A10 10 0 1 1 8 2.83"/><path d="M22 12A10 10 0 0 0 12 2v10Z"/></symbol>
  <symbol id="icon-chart" viewBox="0 0 24 24"><path d="M3 3v18h18"/><path d="m19 9-5 5-4-4-3 3"/></symbol>
  <symbol id="icon-building" viewBox="0 0 24 24"><path d="M3 21h18"/><path d="M5 21V5a2 2 0 0 1 2-2h10a2 2 0 0 1 2 2v16"/><path d="M9 7h1M14 7h1M9 11h1M14 11h1M9 15h1M14 15h1"/></symbol>
  <symbol id="icon-shield" viewBox="0 0 24 24"><path d="M20 13c0 5-3.5 7.5-8 9-4.5-1.5-8-4-8-9V5l8-3 8 3Z"/><path d="m9 12 2 2 4-4"/></symbol>
  <symbol id="icon-x-circle" viewBox="0 0 24 24"><circle cx="12" cy="12" r="10"/><path d="m15 9-6 6M9 9l6 6"/></symbol>
  <symbol id="icon-check-circle" viewBox="0 0 24 24"><circle cx="12" cy="12" r="10"/><path d="m9 12 2 2 4-4"/></symbol>
  <symbol id="icon-bell" viewBox="0 0 24 24"><path d="M18 8a6 6 0 0 0-12 0c0 7-3 7-3 9h18c0-2-3-2-3-9"/><path d="M13.73 21a2 2 0 0 1-3.46 0"/></symbol>
  <symbol id="icon-database" viewBox="0 0 24 24"><ellipse cx="12" cy="5" rx="9" ry="3"/><path d="M3 5v14c0 1.7 4 3 9 3s9-1.3 9-3V5"/><path d="M3 12c0 1.7 4 3 9 3s9-1.3 9-3"/></symbol>
  <symbol id="icon-target" viewBox="0 0 24 24"><circle cx="12" cy="12" r="10"/><circle cx="12" cy="12" r="6"/><circle cx="12" cy="12" r="2"/></symbol>
  <symbol id="icon-search" viewBox="0 0 24 24"><circle cx="11" cy="11" r="8"/><path d="m21 21-4.3-4.3"/></symbol>
  <symbol id="icon-plus" viewBox="0 0 24 24"><path d="M12 5v14M5 12h14"/></symbol>
  <symbol id="icon-menu" viewBox="0 0 24 24"><path d="M4 6h16M4 12h16M4 18h16"/></symbol>
</svg>
